<?xml version="1.0" encoding="UTF-8" standalone="no"?>
<!-- Generator: Adobe Illustrator 19.1.0, SVG Export Plug-In . SVG Version: 6.00 Build 0)  -->
<svg id="Capa_1" style="enable-background:new 0 0 512.002 512.002" xmlns="http://www.w3.org/2000/svg" xml:space="preserve" viewBox="0 0 512.002 512.002" version="1.1" y="0px" x="0px" xmlns:xlink="http://www.w3.org/1999/xlink">
			<path d="m317.02 306.85c0.352-3.383 2.797-6.18 6.109-6.965 3.305-0.781 6.758 0.602 8.594 3.469l49.016 76.629c7.367 11.57 11.258 24.937 11.258 38.656v85.363c0 3.383-2.125 6.398-5.312 7.535-0.875 0.312-1.789 0.465-2.688 0.465-2.352 0-4.641-1.039-6.195-2.934l-70.32-85.949c-1.344-1.648-1.977-3.766-1.766-5.883l11.31-110.39z" fill="#FF4F19"/>
			<path d="m194.98 306.85c-0.352-3.383-2.797-6.18-6.109-6.965-3.305-0.781-6.758 0.602-8.594 3.469l-49.016 76.629c-7.367 11.57-11.258 24.937-11.258 38.656v85.363c0 3.383 2.125 6.398 5.312 7.535 0.875 0.312 1.789 0.465 2.688 0.465 2.352 0 4.641-1.039 6.195-2.934l70.32-85.949c1.344-1.648 1.977-3.766 1.766-5.883l-11.31-110.39z" fill="#E9001E"/>
			<path d="m260.12 1.143c-2.531-1.523-5.703-1.523-8.234 0-3.422 2.055-83.883 51.562-83.883 158.86 0 43.324 10.766 158.59 25.047 268.12 2.07 15.891 15.703 27.875 31.695 27.875h62.516c15.992 0 29.625-11.984 31.695-27.875 14.281-109.53 25.047-224.8 25.047-268.12-0.03-107.3-80.49-156.8-83.91-158.86z" fill="#FFD200"/>
			<path d="m256 456h-31.258c-15.992 0-29.625-11.984-31.695-27.875-14.281-109.53-25.047-224.8-25.047-268.12 0-107.3 80.461-156.8 83.883-158.86 1.261-0.759 2.682-1.138 4.103-1.141h0.015v456z" fill="#FF9600"/>
			<circle cx="256" r="48" cy="168" fill="#53DCFF"/>
				<path d="m256 512c-4.422 0-8-3.582-8-8v-192c0-4.418 3.578-8 8-8s8 3.582 8 8v192c0 4.42-3.58 8-8 8z" fill="#FF4F19"/>
			<path d="m251.88 1.143c-2.288 1.374-38.98 23.989-63.071 70.859h134.38c-24.091-46.87-60.783-69.486-63.071-70.859-2.53-1.524-5.7-1.524-8.24 0z" fill="#FF4F19"/>
			<path d="m256 0c-1.426 0-2.852 0.381-4.117 1.143-2.288 1.374-38.98 23.989-63.071 70.859h67.188v-72.002z" fill="#E9001E"/>
			<path d="m304 168c0-26.51-21.49-48-48-48v96c26.51 0 48-21.49 48-48z" fill="#B3F4FF"/>
			<path d="m256 224c-30.875 0-56-25.121-56-56s25.125-56 56-56 56 25.121 56 56-25.12 56-56 56zm0-96c-22.055 0-40 17.945-40 40s17.945 40 40 40 40-17.945 40-40-17.94-40-40-40z" fill="#5C546A"/>
</svg>
